<?xml version="1.0" standalone="no"?>
<!DOCTYPE svg PUBLIC "-//W3C//DTD SVG 20010904//EN"
 "http://www.w3.org/TR/2001/REC-SVG-20010904/DTD/svg10.dtd">
<svg version="1.0" xmlns="http://www.w3.org/2000/svg"
 width="160.000000pt" height="160.000000pt" viewBox="0 0 160.000000 160.000000"
 preserveAspectRatio="xMidYMid meet">
<metadata>
Created by potrace 1.14, written by Peter Selinger 2001-2017
</metadata>
<g transform="translate(0.000000,160.000000) scale(0.100000,-0.100000)"
fill="#000000" stroke="none">
<path d="M665 1454 c-233 -39 -446 -209 -524 -417 -31 -84 -36 -119 -35 -232
1 -88 14 -159 42 -234 4 -11 -6 -12 -54 -6 -32 3 -62 9 -66 11 -4 3 -8 1 -8
-3 0 -5 36 -33 80 -62 77 -52 107 -78 99 -85 -2 -2 -47 -24 -98 -49 -89 -43
-93 -47 -69 -56 30 -11 184 -35 195 -30 5 2 10 -20 13 -50 3 -38 10 -55 20
-57 8 -1 33 -5 55 -9 22 -3 54 -9 70 -11 125 -22 323 -37 457 -36 155 2 381
26 481 53 36 9 37 11 37 54 0 24 3 46 8 48 4 3 30 8 57 11 28 3 61 8 75 11 14
3 40 8 57 11 18 3 30 10 27 15 -3 5 -43 27 -90 50 -46 22 -86 44 -89 48 -5 8
26 33 117 94 32 21 60 42 63 47 5 8 0 8 -87 -5 -53 -8 -53 -8 -37 32 6 15 10
29 10 30 0 2 7 26 15 54 17 56 21 159 10 229 -43 268 -265 487 -551 545 -56
12 -210 11 -280 -1z"/>
</g>
</svg>
